<svg xmlns="http://www.w3.org/2000/svg" viewBox="0 0 64 64">
  <!-- Fondo -->
  <rect width="64" height="64" rx="12" fill="#1e1e1e"/>

  <!-- Sidebar panel -->
  <rect x="6" y="8" width="20" height="48" rx="3" fill="#2a2a2a"/>

  <!-- FAVORITOS header -->
  <rect x="9" y="12" width="4" height="1.5" rx="0.5" fill="#ffffff" opacity="0.5"/>

  <!-- Favoritos items (5 items) -->
  <rect x="10" y="16" width="12" height="1.5" rx="0.5" fill="#ffffff" opacity="0.7"/>
  <rect x="10" y="19" width="10" height="1.5" rx="0.5" fill="#ffffff" opacity="0.7"/>
  <rect x="10" y="22" width="11" height="1.5" rx="0.5" fill="#ffffff" opacity="0.7"/>
  <rect x="10" y="25" width="9" height="1.5" rx="0.5" fill="#ffffff" opacity="0.7"/>
  <rect x="10" y="28" width="10" height="1.5" rx="0.5" fill="#ffffff" opacity="0.7"/>

  <!-- RECIENTES header -->
  <rect x="9" y="34" width="5" height="1.5" rx="0.5" fill="#ffffff" opacity="0.5"/>

  <!-- Recientes items -->
  <rect x="10" y="38" width="11" height="1.5" rx="0.5" fill="#ffffff" opacity="0.4"/>
  <rect x="10" y="41" width="8" height="1.5" rx="0.5" fill="#ffffff" opacity="0.4"/>
  <rect x="10" y="44" width="10" height="1.5" rx="0.5" fill="#ffffff" opacity="0.4"/>
  <rect x="10" y="47" width="9" height="1.5" rx="0.5" fill="#ffffff" opacity="0.4"/>
  <rect x="10" y="50" width="11" height="1.5" rx="0.5" fill="#ffffff" opacity="0.4"/>

  <!-- Main content area -->
  <rect x="30" y="8" width="28" height="48" rx="3" fill="#252525"/>
  <rect x="34" y="14" width="18" height="2" rx="1" fill="#ffffff" opacity="0.12"/>
  <rect x="34" y="20" width="14" height="1.5" rx="0.5" fill="#ffffff" opacity="0.08"/>
  <rect x="34" y="25" width="16" height="1.5" rx="0.5" fill="#ffffff" opacity="0.08"/>
  <rect x="34" y="30" width="12" height="1.5" rx="0.5" fill="#ffffff" opacity="0.08"/>
</svg>
